<?xml version="1.0" encoding="utf-8"?>
<!DOCTYPE svg PUBLIC "-//W3C//DTD SVG 1.1//EN" "http://www.w3.org/Graphics/SVG/1.1/DTD/svg11.dtd">

<svg  xmlns="http://www.w3.org/2000/svg" width="480" height="2080">
 
 <style type="text/css">
    <![CDATA[
text {
    font-family: Helvetica, Arial, sans-serif;
}

.node-label {
    font-size:smaller;
    color: #333333;
    text-anchor: middle;
}

.group-item {
    
}

.group-item:hover {
   
}

.group-item-actionable {
    cursor: pointer;
}

.group-item-actionable:hover {
 fill: #8bceff;
    stroke: #3484d2;
}



.item-actionable {
    cursor: pointer;
}

.item-actionable:hover {
 fill: #8bceff;
    stroke: #3484d2;
}


.group-actionable {
    cursor: pointer;

}

.group-shape {
    stroke: #dedede;
    fill: white;

}

.group-actionable:hover > .group-shape {
    fill: blue;
    
}
 ]]>
</style>
 
<defs><marker id="end" viewBox="0 -15 30 30" refX="43" refY="0" markerWidth="6" markerHeight="6" orient="auto"><path fill="#acacac" d="M0,-10L25,0L0,10"></path></marker></defs><g class="group" transform="rotate(90 240 40) translate(240,40)"><rect class="group-shape" x="0" y="-200" width="400" height="400" rx="7" ry="7"></rect><path d="M0,0C100,0 100,-66.66666666666666 200,-66.66666666666666" stroke="#cacaca" stroke-width="2" fill="none"></path><path d="M200,-66.66666666666666C300,-66.66666666666666 300,0 400,0" stroke="#cacaca" stroke-width="2" fill="none"></path><path d="M0,0C100,0 100,-66.66666666666666 200,-66.66666666666666" stroke="#cacaca" stroke-width="2" fill="none"></path><path d="M200,-66.66666666666666C300,-66.66666666666666 300,0 400,0" stroke="#cacaca" stroke-width="2" fill="none"></path><path d="M0,0C100,0 100,66.66666666666669 200,66.66666666666669" stroke="#cacaca" stroke-width="2" fill="none"></path><path d="M200,66.66666666666669C300,66.66666666666669 300,0 400,0" stroke="#cacaca" stroke-width="2" fill="none"></path><path d="M0,0C100,0 100,66.66666666666669 200,66.66666666666669" stroke="#cacaca" stroke-width="2" fill="none"></path><path d="M200,66.66666666666669C300,66.66666666666669 300,0 400,0" stroke="#cacaca" stroke-width="2" fill="none"></path><rect class="group-item" rx="4" ry="4" x="-4" y="-4" width="8" height="8" fill="#dedede" stroke="#dedede" stroke-width="2"></rect><rect class="group-item" rx="4" ry="4" x="182.5" y="-111.66666666666666" width="35" height="90" fill="#ffffff" stroke="#999999" stroke-width="2"></rect><rect class="group-item" rx="4" ry="4" x="182.5" y="21.666666666666686" width="35" height="90" fill="#ffffff" stroke="#999999" stroke-width="2"></rect><rect class="group-item" rx="4" ry="4" x="396" y="-4" width="8" height="8" fill="#dedede" stroke="#dedede" stroke-width="2"></rect><text class="node-label" x="-15" y="0" transform="rotate(-90 -3 -9)"></text><text class="node-label" x="185" y="-66.66666666666666" transform="rotate(-90 197 -75.66666666666666)">Condition 1</text><text class="node-label" x="185" y="66.66666666666669" transform="rotate(-90 197 57.666666666666686)">Condition 2</text><text class="node-label" x="385" y="0" transform="rotate(-90 397 -9)"></text></g><g class="group" transform="rotate(90 240 440) translate(240,440)"><rect class="group-shape" x="0" y="-200" width="400" height="400" rx="7" ry="7"></rect><path d="M133.33333333333334,0C200,0 200,0 266.6666666666667,0" stroke="#cacaca" stroke-width="2" fill="none"></path><path d="M0,0C66.66666666666667,0 66.66666666666667,0 133.33333333333334,0" stroke="#cacaca" stroke-width="2" fill="none"></path><path d="M0,0C66.66666666666667,0 66.66666666666667,0 133.33333333333334,0" stroke="#cacaca" stroke-width="2" fill="none"></path><path d="M266.6666666666667,0C333.33333333333337,0 333.33333333333337,0 400,0" stroke="#cacaca" stroke-width="2" fill="none"></path><path d="M266.6666666666667,0C333.33333333333337,0 333.33333333333337,0 400,0" stroke="#cacaca" stroke-width="2" fill="none"></path><rect class="group-item" rx="4" ry="4" x="-4" y="-4" width="8" height="8" fill="#dedede" stroke="#dedede" stroke-width="2"></rect><rect class="group-item" rx="4" ry="4" x="115.83333333333334" y="-45" width="35" height="90" fill="#ffffff" stroke="#999999" stroke-width="2"></rect><rect class="group-item" rx="4" ry="4" x="249.16666666666669" y="-45" width="35" height="90" fill="#ffffff" stroke="#999999" stroke-width="2"></rect><rect class="group-item" rx="4" ry="4" x="396" y="-4" width="8" height="8" fill="#dedede" stroke="#dedede" stroke-width="2"></rect><text class="node-label" x="-15" y="0" transform="rotate(-90 -3 -9)"></text><text class="node-label" x="118.33333333333334" y="0" transform="rotate(-90 130.33333333333334 -9)">Condition 3</text><text class="node-label" x="251.66666666666669" y="0" transform="rotate(-90 263.6666666666667 -9)">Condition 4</text><text class="node-label" x="385" y="0" transform="rotate(-90 397 -9)"></text></g><g class="group" transform="rotate(90 240 840) translate(240,840)"><rect class="group-shape" x="0" y="-200" width="400" height="400" rx="7" ry="7"></rect><path d="M0,0C100,0 100,-100 200,-100" stroke="#cacaca" stroke-width="2" fill="none"></path><path d="M200,-100C300,-100 300,0 400,0" stroke="#cacaca" stroke-width="2" fill="none"></path><path d="M0,0C100,0 100,-100 200,-100" stroke="#cacaca" stroke-width="2" fill="none"></path><path d="M200,-100C300,-100 300,0 400,0" stroke="#cacaca" stroke-width="2" fill="none"></path><path d="M0,0C100,0 100,-100 200,-100" stroke="#cacaca" stroke-width="2" fill="none"></path><path d="M200,-100C300,-100 300,0 400,0" stroke="#cacaca" stroke-width="2" fill="none"></path><path d="M0,0C100,0 100,0 200,0" stroke="#cacaca" stroke-width="2" fill="none"></path><path d="M200,0C300,0 300,0 400,0" stroke="#cacaca" stroke-width="2" fill="none"></path><path d="M0,0C100,0 100,0 200,0" stroke="#cacaca" stroke-width="2" fill="none"></path><path d="M200,0C300,0 300,0 400,0" stroke="#cacaca" stroke-width="2" fill="none"></path><path d="M0,0C100,0 100,0 200,0" stroke="#cacaca" stroke-width="2" fill="none"></path><path d="M200,0C300,0 300,0 400,0" stroke="#cacaca" stroke-width="2" fill="none"></path><path d="M0,0C100,0 100,100 200,100" stroke="#cacaca" stroke-width="2" fill="none"></path><path d="M200,100C300,100 300,0 400,0" stroke="#cacaca" stroke-width="2" fill="none"></path><path d="M0,0C100,0 100,100 200,100" stroke="#cacaca" stroke-width="2" fill="none"></path><path d="M200,100C300,100 300,0 400,0" stroke="#cacaca" stroke-width="2" fill="none"></path><path d="M0,0C100,0 100,100 200,100" stroke="#cacaca" stroke-width="2" fill="none"></path><path d="M200,100C300,100 300,0 400,0" stroke="#cacaca" stroke-width="2" fill="none"></path><rect class="group-item" rx="4" ry="4" x="-4" y="-4" width="8" height="8" fill="#dedede" stroke="#dedede" stroke-width="2"></rect><rect class="group-item" rx="4" ry="4" x="182.5" y="-145" width="35" height="90" fill="#ffffff" stroke="#999999" stroke-width="2"></rect><rect class="group-item" rx="4" ry="4" x="182.5" y="-45" width="35" height="90" fill="#ffffff" stroke="#999999" stroke-width="2"></rect><rect class="group-item" rx="4" ry="4" x="182.5" y="55" width="35" height="90" fill="#ffffff" stroke="#999999" stroke-width="2"></rect><rect class="group-item" rx="4" ry="4" x="396" y="-4" width="8" height="8" fill="#dedede" stroke="#dedede" stroke-width="2"></rect><text class="node-label" x="-15" y="0" transform="rotate(-90 -3 -9)"></text><text class="node-label" x="185" y="-100" transform="rotate(-90 197 -109)">Condition 5</text><text class="node-label" x="185" y="0" transform="rotate(-90 197 -9)">Condition 6</text><text class="node-label" x="185" y="100" transform="rotate(-90 197 91)">Condition 7</text><text class="node-label" x="385" y="0" transform="rotate(-90 397 -9)"></text></g><g class="group" transform="rotate(90 240 1240) translate(240,1240)"><rect class="group-shape" x="0" y="-200" width="400" height="400" rx="7" ry="7"></rect><path d="M100,0C150,0 150,0 200,0" stroke="#cacaca" stroke-width="2" fill="none"></path><path d="M0,0C50,0 50,0 100,0" stroke="#cacaca" stroke-width="2" fill="none"></path><path d="M0,0C50,0 50,0 100,0" stroke="#cacaca" stroke-width="2" fill="none"></path><path d="M0,0C50,0 50,0 100,0" stroke="#cacaca" stroke-width="2" fill="none"></path><path d="M200,0C250,0 250,0 300,0" stroke="#cacaca" stroke-width="2" fill="none"></path><path d="M300,0C350,0 350,0 400,0" stroke="#cacaca" stroke-width="2" fill="none"></path><path d="M300,0C350,0 350,0 400,0" stroke="#cacaca" stroke-width="2" fill="none"></path><path d="M300,0C350,0 350,0 400,0" stroke="#cacaca" stroke-width="2" fill="none"></path><rect class="group-item" rx="4" ry="4" x="-4" y="-4" width="8" height="8" fill="#dedede" stroke="#dedede" stroke-width="2"></rect><rect class="group-item" rx="4" ry="4" x="82.5" y="-45" width="35" height="90" fill="#ffffff" stroke="#999999" stroke-width="2"></rect><rect class="group-item" rx="4" ry="4" x="182.5" y="-45" width="35" height="90" fill="#ffffff" stroke="#999999" stroke-width="2"></rect><rect class="group-item" rx="4" ry="4" x="282.5" y="-45" width="35" height="90" fill="#ffffff" stroke="#999999" stroke-width="2"></rect><rect class="group-item" rx="4" ry="4" x="396" y="-4" width="8" height="8" fill="#dedede" stroke="#dedede" stroke-width="2"></rect><text class="node-label" x="-15" y="0" transform="rotate(-90 -3 -9)"></text><text class="node-label" x="85" y="0" transform="rotate(-90 97 -9)">Condition 8</text><text class="node-label" x="185" y="0" transform="rotate(-90 197 -9)">Condition 9</text><text class="node-label" x="285" y="0" transform="rotate(-90 297 -9)">Condition 10</text><text class="node-label" x="385" y="0" transform="rotate(-90 397 -9)"></text></g><g class="group" transform="rotate(90 240 1640) translate(240,1640)"><rect class="group-shape" x="0" y="-200" width="400" height="400" rx="7" ry="7"></rect><path d="M0,0C100,0 100,-100 200,-100" stroke="#cacaca" stroke-width="2" fill="none"></path><path d="M200,-100C300,-100 300,0 400,0" stroke="#cacaca" stroke-width="2" fill="none"></path><path d="M0,0C100,0 100,-100 200,-100" stroke="#cacaca" stroke-width="2" fill="none"></path><path d="M200,-100C300,-100 300,0 400,0" stroke="#cacaca" stroke-width="2" fill="none"></path><path d="M0,0C100,0 100,-100 200,-100" stroke="#cacaca" stroke-width="2" fill="none"></path><path d="M200,-100C300,-100 300,0 400,0" stroke="#cacaca" stroke-width="2" fill="none"></path><path d="M0,0C100,0 100,-100 200,-100" stroke="#cacaca" stroke-width="2" fill="none"></path><path d="M200,-100C300,-100 300,0 400,0" stroke="#cacaca" stroke-width="2" fill="none"></path><path d="M0,0C100,0 100,0 200,0" stroke="#cacaca" stroke-width="2" fill="none"></path><path d="M200,0C300,0 300,0 400,0" stroke="#cacaca" stroke-width="2" fill="none"></path><path d="M0,0C100,0 100,0 200,0" stroke="#cacaca" stroke-width="2" fill="none"></path><path d="M200,0C300,0 300,0 400,0" stroke="#cacaca" stroke-width="2" fill="none"></path><path d="M0,0C100,0 100,0 200,0" stroke="#cacaca" stroke-width="2" fill="none"></path><path d="M200,0C300,0 300,0 400,0" stroke="#cacaca" stroke-width="2" fill="none"></path><path d="M0,0C100,0 100,0 200,0" stroke="#cacaca" stroke-width="2" fill="none"></path><path d="M200,0C300,0 300,0 400,0" stroke="#cacaca" stroke-width="2" fill="none"></path><path d="M0,0C90,0 90,100 180,100" stroke="#cacaca" stroke-width="2" fill="none"></path><path d="M180,100C200,100 200,100 220,100" stroke="#cacaca" stroke-width="2" fill="none"></path><path d="M0,0C90,0 90,100 180,100" stroke="#cacaca" stroke-width="2" fill="none"></path><path d="M180,100C200,100 200,100 220,100" stroke="#cacaca" stroke-width="2" fill="none"></path><path d="M0,0C90,0 90,100 180,100" stroke="#cacaca" stroke-width="2" fill="none"></path><path d="M180,100C200,100 200,100 220,100" stroke="#cacaca" stroke-width="2" fill="none"></path><path d="M0,0C90,0 90,100 180,100" stroke="#cacaca" stroke-width="2" fill="none"></path><path d="M180,100C200,100 200,100 220,100" stroke="#cacaca" stroke-width="2" fill="none"></path><path d="M220,100C310,100 310,0 400,0" stroke="#cacaca" stroke-width="2" fill="none"></path><path d="M220,100C310,100 310,0 400,0" stroke="#cacaca" stroke-width="2" fill="none"></path><path d="M220,100C310,100 310,0 400,0" stroke="#cacaca" stroke-width="2" fill="none"></path><path d="M220,100C310,100 310,0 400,0" stroke="#cacaca" stroke-width="2" fill="none"></path><rect class="group-item" rx="4" ry="4" x="-4" y="-4" width="8" height="8" fill="#dedede" stroke="#dedede" stroke-width="2"></rect><rect class="group-item" rx="4" ry="4" x="182.5" y="-145" width="35" height="90" fill="#ffffff" stroke="#999999" stroke-width="2"></rect><rect class="group-item" rx="4" ry="4" x="182.5" y="-45" width="35" height="90" fill="#ffffff" stroke="#999999" stroke-width="2"></rect><rect class="group-item" rx="4" ry="4" x="162.5" y="55" width="35" height="90" fill="#ffffff" stroke="#999999" stroke-width="2"></rect><rect class="group-item" rx="4" ry="4" x="202.5" y="55" width="35" height="90" fill="#ffffff" stroke="#999999" stroke-width="2"></rect><rect class="group-item" rx="4" ry="4" x="396" y="-4" width="8" height="8" fill="#dedede" stroke="#dedede" stroke-width="2"></rect><text class="node-label" x="-15" y="0" transform="rotate(-90 -3 -9)"></text><text class="node-label" x="185" y="-100" transform="rotate(-90 197 -109)">Condition 11</text><text class="node-label" x="185" y="0" transform="rotate(-90 197 -9)">Condition 12</text><text class="node-label" x="165" y="100" transform="rotate(-90 177 91)">Condition 13</text><text class="node-label" x="205" y="100" transform="rotate(-90 217 91)">Condition 14</text><text class="node-label" x="385" y="0" transform="rotate(-90 397 -9)"></text></g></svg>