<?xml version="1.0" encoding="utf-8"?>
<!DOCTYPE svg PUBLIC "-//W3C//DTD SVG 1.1//EN" "http://www.w3.org/Graphics/SVG/1.1/DTD/svg11.dtd">

<svg  xmlns="http://www.w3.org/2000/svg" width="280" height="280">
 
 <style type="text/css">
    <![CDATA[
text {
    font-family: Helvetica, Arial, sans-serif;
}

.node-label {
    font-size:smaller;
    color: #333333;
    text-anchor: middle;
}

.group-item {
    
}

.group-item:hover {
   
}

.group-item-actionable {
    cursor: pointer;
}

.group-item-actionable:hover {
 fill: #8bceff;
    stroke: #3484d2;
}



.item-actionable {
    cursor: pointer;
}

.item-actionable:hover {
 fill: #8bceff;
    stroke: #3484d2;
}


.group-actionable {
    cursor: pointer;

}

.group-shape {
    stroke: #dedede;
    fill: white;

}

.group-actionable:hover > .group-shape {
    fill: blue;
    
}
 ]]>
</style>
 
<defs><marker id="end" viewBox="0 -15 30 30" refX="43" refY="0" markerWidth="6" markerHeight="6" orient="auto"><path fill="#acacac" d="M0,-10L25,0L0,10"></path></marker></defs><g class="group" transform="translate(40,140)"><rect class="group-shape" x="0" y="-100" width="200" height="200" rx="7" ry="7"></rect><path d="M0,0C50,0 50,-50 100,-50" stroke="#5e58fe" stroke-width="2" fill="none"></path><path d="M100,-50C150,-50 150,0 200,0" stroke="#5e58fe" stroke-width="2" fill="none"></path><path d="M0,0C50,0 50,-50 100,-50" stroke="#5e58fe" stroke-width="2" fill="none"></path><path d="M100,-50C150,-50 150,0 200,0" stroke="#5e58fe" stroke-width="2" fill="none"></path><path d="M0,0C50,0 50,-50 100,-50" stroke="#5e58fe" stroke-width="2" fill="none"></path><path d="M100,-50C150,-50 150,0 200,0" stroke="#5e58fe" stroke-width="2" fill="none"></path><path d="M0,0C50,0 50,-50 100,-50" stroke="#5e58fe" stroke-width="2" fill="none"></path><path d="M100,-50C150,-50 150,0 200,0" stroke="#5e58fe" stroke-width="2" fill="none"></path><path d="M0,0C50,0 50,-50 100,-50" stroke="#5e58fe" stroke-width="2" fill="none"></path><path d="M100,-50C150,-50 150,0 200,0" stroke="#5e58fe" stroke-width="2" fill="none"></path><path d="M0,0C50,0 50,0 100,0" stroke="#5e58fe" stroke-width="2" fill="none"></path><path d="M100,0C150,0 150,0 200,0" stroke="#5e58fe" stroke-width="2" fill="none"></path><path d="M0,0C50,0 50,0 100,0" stroke="#5e58fe" stroke-width="2" fill="none"></path><path d="M100,0C150,0 150,0 200,0" stroke="#5e58fe" stroke-width="2" fill="none"></path><path d="M0,0C50,0 50,0 100,0" stroke="#5e58fe" stroke-width="2" fill="none"></path><path d="M100,0C150,0 150,0 200,0" stroke="#5e58fe" stroke-width="2" fill="none"></path><path d="M0,0C50,0 50,0 100,0" stroke="#5e58fe" stroke-width="2" fill="none"></path><path d="M100,0C150,0 150,0 200,0" stroke="#5e58fe" stroke-width="2" fill="none"></path><path d="M0,0C50,0 50,0 100,0" stroke="#5e58fe" stroke-width="2" fill="none"></path><path d="M100,0C150,0 150,0 200,0" stroke="#5e58fe" stroke-width="2" fill="none"></path><path d="M0,0C30,0 30,50 60,50" stroke="#5e58fe" stroke-width="2" fill="none"></path><path d="M60,50C80,50 80,50 100,50" stroke="#cacaca" stroke-width="2" fill="none"></path><path d="M0,0C30,0 30,50 60,50" stroke="#5e58fe" stroke-width="2" fill="none"></path><path d="M60,50C80,50 80,50 100,50" stroke="#cacaca" stroke-width="2" fill="none"></path><path d="M0,0C30,0 30,50 60,50" stroke="#5e58fe" stroke-width="2" fill="none"></path><path d="M60,50C80,50 80,50 100,50" stroke="#cacaca" stroke-width="2" fill="none"></path><path d="M0,0C30,0 30,50 60,50" stroke="#5e58fe" stroke-width="2" fill="none"></path><path d="M60,50C80,50 80,50 100,50" stroke="#cacaca" stroke-width="2" fill="none"></path><path d="M0,0C30,0 30,50 60,50" stroke="#5e58fe" stroke-width="2" fill="none"></path><path d="M60,50C80,50 80,50 100,50" stroke="#cacaca" stroke-width="2" fill="none"></path><path d="M100,50C120,50 120,50 140,50" stroke="#cacaca" stroke-width="2" fill="none"></path><path d="M100,50C120,50 120,50 140,50" stroke="#cacaca" stroke-width="2" fill="none"></path><path d="M100,50C120,50 120,50 140,50" stroke="#cacaca" stroke-width="2" fill="none"></path><path d="M100,50C120,50 120,50 140,50" stroke="#cacaca" stroke-width="2" fill="none"></path><path d="M100,50C120,50 120,50 140,50" stroke="#cacaca" stroke-width="2" fill="none"></path><path d="M140,50C170,50 170,0 200,0" stroke="#cacaca" stroke-width="2" fill="none"></path><path d="M140,50C170,50 170,0 200,0" stroke="#cacaca" stroke-width="2" fill="none"></path><path d="M140,50C170,50 170,0 200,0" stroke="#cacaca" stroke-width="2" fill="none"></path><path d="M140,50C170,50 170,0 200,0" stroke="#cacaca" stroke-width="2" fill="none"></path><path d="M140,50C170,50 170,0 200,0" stroke="#cacaca" stroke-width="2" fill="none"></path><circle class="group-item" cx="0" cy="0" r="3" fill="#5e58fe" stroke="#5e58fe" stroke-width="2"></circle><circle class="group-item" cx="100" cy="-50" r="8" fill="#ffffff" stroke="#999999" stroke-width="1"></circle><circle class="group-item" cx="100" cy="0" r="8" fill="#ffffff" stroke="#999999" stroke-width="1"></circle><circle class="group-item" cx="60" cy="50" r="8" fill="#ffffff" stroke="#999999" stroke-width="2"></circle><circle class="group-item" cx="100" cy="50" r="8" fill="#ffffff" stroke="#999999" stroke-width="2"></circle><circle class="group-item" cx="140" cy="50" r="8" fill="#ffffff" stroke="#999999" stroke-width="2"></circle><circle class="group-item" cx="200" cy="0" r="3" fill="#5e58fe" stroke="#5e58fe" stroke-width="2"></circle><line></line><line class="group-item-result" x1="92" y1="-50" x2="108" y2="-50" stroke="#5e58fe" stroke-width="2"></line><line class="group-item-result" x1="92" y1="0" x2="108" y2="0" stroke="#5e58fe" stroke-width="2"></line><line class="group-item-result" x1="60" y1="42" x2="60" y2="58" stroke="#5e58fe" stroke-width="2"></line><line class="group-item-result" x1="100" y1="42" x2="100" y2="58" stroke="#5e58fe" stroke-width="2"></line><line class="group-item-result" x1="140" y1="42" x2="140" y2="58" stroke="#5e58fe" stroke-width="2"></line><line></line><text class="node-label" x="0" y="-10" transform=""></text><text class="node-label" x="100" y="-60" transform="">Rule 1</text><text class="node-label" x="100" y="-10" transform="">Rule 2</text><text class="node-label" x="60" y="40" transform="">Rule 3</text><text class="node-label" x="100" y="40" transform="">Rule 4</text><text class="node-label" x="140" y="40" transform="">Rule 5</text><text class="node-label" x="200" y="-10" transform=""></text></g></svg>