<?xml version="1.0" encoding="utf-8"?>
<!DOCTYPE svg PUBLIC "-//W3C//DTD SVG 1.1//EN" "http://www.w3.org/Graphics/SVG/1.1/DTD/svg11.dtd">

<svg  xmlns="http://www.w3.org/2000/svg" width="280" height="280">


 <style type="text/css">
    <![CDATA[
text {
    font-family: Helvetica, Arial, sans-serif;
}

.node-label {
    font-size:smaller;
    color: #333333;
    text-anchor: middle;
}

.group-item {
    
}

.group-item:hover {
   
}

.group-item-actionable {
    cursor: pointer;
}

.group-item-actionable:hover {
 fill: #8bceff;
    stroke: #3484d2;
}



.item-actionable {
    cursor: pointer;
}

.item-actionable:hover {
 fill: #8bceff;
    stroke: #3484d2;
}


.group-actionable {
    cursor: pointer;

}

.group-shape {
    stroke: #dedede;
    fill: white;

}

.group-actionable:hover > .group-shape {
    fill: blue;
    
}
 ]]>
</style>
 

    <defs><marker id="end" viewBox="0 -15 30 30" refX="43" refY="0" markerWidth="6" markerHeight="6" orient="auto"><path fill="#acacac" d="M0,-10L25,0L0,10"></path></marker></defs><g class="group" transform="translate(40,140)"><rect class="group-shape" x="0" y="-100" width="200" height="200" rx="7" ry="7"></rect><path d="M0,0C50,0 50,-33.33333333333333 100,-33.33333333333333" stroke="#cacaca" stroke-width="2" fill="none"></path><path d="M100,-33.33333333333333C150,-33.33333333333333 150,0 200,0" stroke="#cacaca" stroke-width="2" fill="none"></path><path d="M0,0C50,0 50,-33.33333333333333 100,-33.33333333333333" stroke="#cacaca" stroke-width="2" fill="none"></path><path d="M100,-33.33333333333333C150,-33.33333333333333 150,0 200,0" stroke="#cacaca" stroke-width="2" fill="none"></path><path d="M0,0C50,0 50,33.33333333333334 100,33.33333333333334" stroke="#cacaca" stroke-width="2" fill="none"></path><path d="M100,33.33333333333334C150,33.33333333333334 150,0 200,0" stroke="#cacaca" stroke-width="2" fill="none"></path><path d="M0,0C50,0 50,33.33333333333334 100,33.33333333333334" stroke="#cacaca" stroke-width="2" fill="none"></path><path d="M100,33.33333333333334C150,33.33333333333334 150,0 200,0" stroke="#cacaca" stroke-width="2" fill="none"></path><circle class="group-item" cx="0" cy="0" r="3" fill="#dedede" stroke="#dedede" stroke-width="2"></circle><circle class="group-item" cx="100" cy="-33.33333333333333" r="8" fill="#ffffff" stroke="#999999" stroke-width="2"></circle><circle class="group-item" cx="100" cy="33.33333333333334" r="8" fill="#ffffff" stroke="#999999" stroke-width="2"></circle><circle class="group-item" cx="200" cy="0" r="3" fill="#dedede" stroke="#dedede" stroke-width="2"></circle><text class="node-label" x="0" y="-10" transform=""></text><text class="node-label" x="100" y="-43.33333333333333" transform="">A</text><text class="node-label" x="100" y="23.333333333333343" transform="">B</text><text class="node-label" x="200" y="-10" transform=""></text></g></svg>